<svg width="18" height="19" viewBox="0 0 18 19" fill="none" xmlns="http://www.w3.org/2000/svg">
<path fill-rule="evenodd" clip-rule="evenodd" d="M2.00005 7C2.00005 5.14348 2.73755 3.36301 4.0503 2.05025C5.36306 0.737498 7.14354 0 9.00005 0C10.8566 0 12.637 0.737498 13.9498 2.05025C15.2626 3.36301 16.0001 5.14348 16.0001 7V10.764L17.8221 14.408C17.9059 14.5757 17.9455 14.7621 17.9371 14.9494C17.9287 15.1368 17.8725 15.3188 17.7739 15.4783C17.6753 15.6379 17.5376 15.7695 17.3738 15.8608C17.21 15.9521 17.0256 16 16.8381 16H12.8741C12.6516 16.8582 12.1505 17.6183 11.4493 18.1609C10.7481 18.7035 9.88665 18.9979 9.00005 18.9979C8.11345 18.9979 7.25196 18.7035 6.55079 18.1609C5.84962 17.6183 5.34849 16.8582 5.12605 16H1.16205C0.97453 16 0.790114 15.9521 0.626319 15.8608C0.462525 15.7695 0.32479 15.6379 0.226197 15.4783C0.127605 15.3188 0.0714274 15.1368 0.0630009 14.9494C0.0545745 14.7621 0.0941789 14.5757 0.178052 14.408L2.00005 10.764V7ZM7.26805 16C7.4436 16.304 7.69607 16.5565 8.0001 16.732C8.30412 16.9075 8.649 16.9999 9.00005 16.9999C9.35111 16.9999 9.69598 16.9075 10 16.732C10.304 16.5565 10.5565 16.304 10.7321 16H7.26805ZM9.00005 2C7.67397 2 6.4022 2.52678 5.46452 3.46447C4.52684 4.40215 4.00005 5.67392 4.00005 7V10.764C4.00003 11.0743 3.92779 11.3804 3.78905 11.658L2.61905 14H15.3821L14.2121 11.658C14.073 11.3805 14.0004 11.0744 14.0001 10.764V7C14.0001 5.67392 13.4733 4.40215 12.5356 3.46447C11.5979 2.52678 10.3261 2 9.00005 2Z" fill="white"/>
</svg>
