<svg width="23" height="19" viewBox="0 0 23 19" fill="none" xmlns="http://www.w3.org/2000/svg">
<path fill-rule="evenodd" clip-rule="evenodd" d="M4.87884 6.9697C5.61823 6.9697 6.32734 6.67597 6.85017 6.15315C7.373 5.63032 7.66672 4.92121 7.66672 4.18182C7.66672 3.44243 7.373 2.73332 6.85017 2.21049C6.32734 1.68766 5.61823 1.39394 4.87884 1.39394C4.13945 1.39394 3.43034 1.68766 2.90751 2.21049C2.38468 2.73332 2.09096 3.44243 2.09096 4.18182C2.09096 4.92121 2.38468 5.63032 2.90751 6.15315C3.43034 6.67597 4.13945 6.9697 4.87884 6.9697ZM4.87884 8.36364C5.428 8.36364 5.97179 8.25547 6.47915 8.04531C6.98651 7.83516 7.44751 7.52713 7.83583 7.13881C8.22415 6.75049 8.53218 6.28949 8.74234 5.78213C8.95249 5.27477 9.06066 4.73098 9.06066 4.18182C9.06066 3.63265 8.95249 3.08887 8.74234 2.58151C8.53218 2.07414 8.22415 1.61314 7.83583 1.22483C7.44751 0.836509 6.98651 0.528478 6.47915 0.318322C5.97179 0.108166 5.428 -8.18318e-09 4.87884 0C3.76975 1.65267e-08 2.70609 0.440583 1.92185 1.22483C1.1376 2.00907 0.697021 3.07273 0.697021 4.18182C0.697021 5.29091 1.1376 6.35457 1.92185 7.13881C2.70609 7.92305 3.76975 8.36364 4.87884 8.36364Z" fill="#808191"/>
<path fill-rule="evenodd" clip-rule="evenodd" d="M3.28133 6.82472C3.34624 6.88947 3.39774 6.96638 3.43287 7.05105C3.46801 7.13573 3.48609 7.2265 3.48609 7.31818C3.48609 7.40986 3.46801 7.50063 3.43287 7.5853C3.39774 7.66998 3.34624 7.74689 3.28133 7.81163L2.81018 8.28139C1.90347 9.18835 1.39406 10.4183 1.39394 11.7007V14.2879C1.39394 14.4727 1.32051 14.65 1.1898 14.7807C1.05909 14.9114 0.881818 14.9848 0.69697 14.9848C0.512122 14.9848 0.334845 14.9114 0.204138 14.7807C0.0734305 14.65 0 14.4727 0 14.2879V11.7007C0.000197604 10.0486 0.656526 8.46419 1.82467 7.29588L2.29442 6.82472C2.35917 6.75982 2.43608 6.70832 2.52075 6.67319C2.60543 6.63805 2.6962 6.61996 2.78788 6.61996C2.87955 6.61996 2.97033 6.63805 3.055 6.67319C3.13968 6.70832 3.21659 6.75982 3.28133 6.82472ZM19.7187 6.40654C19.6538 6.47129 19.6023 6.5482 19.5671 6.63287C19.532 6.71755 19.5139 6.80832 19.5139 6.9C19.5139 6.99167 19.532 7.08245 19.5671 7.16712C19.6023 7.2518 19.6538 7.32871 19.7187 7.39345L20.1898 7.86321C20.6388 8.31225 20.995 8.84533 21.238 9.43202C21.481 10.0187 21.6061 10.6475 21.6061 11.2825V14.2879C21.6061 14.4727 21.6795 14.65 21.8102 14.7807C21.9409 14.9114 22.1182 14.9848 22.303 14.9848C22.4879 14.9848 22.6652 14.9114 22.7959 14.7807C22.9266 14.65 23 14.4727 23 14.2879V11.2825C22.9998 9.63042 22.3435 8.04601 21.1753 6.87769L20.7056 6.40654C20.6408 6.34164 20.5639 6.29014 20.4792 6.255C20.3946 6.21987 20.3038 6.20178 20.2121 6.20178C20.1204 6.20178 20.0297 6.21987 19.945 6.255C19.8603 6.29014 19.7834 6.34164 19.7187 6.40654Z" fill="#808191"/>
<path fill-rule="evenodd" clip-rule="evenodd" d="M17.4242 6.9697C16.6848 6.9697 15.9757 6.67597 15.4529 6.15315C14.9301 5.63032 14.6363 4.92121 14.6363 4.18182C14.6363 3.44243 14.9301 2.73332 15.4529 2.21049C15.9757 1.68766 16.6848 1.39394 17.4242 1.39394C18.1636 1.39394 18.8727 1.68766 19.3955 2.21049C19.9184 2.73332 20.2121 3.44243 20.2121 4.18182C20.2121 4.92121 19.9184 5.63032 19.3955 6.15315C18.8727 6.67597 18.1636 6.9697 17.4242 6.9697ZM17.4242 8.36364C16.8751 8.36364 16.3313 8.25547 15.8239 8.04532C15.3165 7.83516 14.8555 7.52713 14.4672 7.13881C14.0789 6.75049 13.7709 6.28949 13.5607 5.78213C13.3506 5.27477 13.2424 4.73098 13.2424 4.18182C13.2424 3.63265 13.3506 3.08887 13.5607 2.58151C13.7709 2.07414 14.0789 1.61314 14.4672 1.22483C14.8555 0.836509 15.3165 0.528478 15.8239 0.318322C16.3313 0.108166 16.8751 -8.18318e-09 17.4242 0C18.5333 1.65267e-08 19.597 0.440583 20.3812 1.22483C21.1655 2.00907 21.606 3.07273 21.606 4.18182C21.606 5.29091 21.1655 6.35457 20.3812 7.13881C19.597 7.92305 18.5333 8.36364 17.4242 8.36364ZM11.1515 12.8939C10.2273 12.8939 9.34087 13.2611 8.68733 13.9146C8.0338 14.5682 7.66664 15.4545 7.66664 16.3788V18.1909C7.66664 18.3758 7.59321 18.553 7.46251 18.6837C7.3318 18.8144 7.15452 18.8879 6.96967 18.8879C6.78483 18.8879 6.60755 18.8144 6.47684 18.6837C6.34614 18.553 6.27271 18.3758 6.27271 18.1909V16.3788C6.27271 15.0849 6.78672 13.8439 7.70167 12.929C8.61662 12.014 9.85756 11.5 11.1515 11.5C12.4454 11.5 13.6864 12.014 14.6013 12.929C15.5163 13.8439 16.0303 15.0849 16.0303 16.3788V18.1909C16.0303 18.3758 15.9569 18.553 15.8261 18.6837C15.6954 18.8144 15.5182 18.8879 15.3333 18.8879C15.1485 18.8879 14.9712 18.8144 14.8405 18.6837C14.7098 18.553 14.6363 18.3758 14.6363 18.1909V16.3788C14.6363 15.9212 14.5462 15.468 14.3711 15.0452C14.1959 14.6224 13.9393 14.2382 13.6157 13.9146C13.2921 13.591 12.9079 13.3343 12.4851 13.1592C12.0623 12.9841 11.6091 12.8939 11.1515 12.8939Z" fill="#808191"/>
<path fill-rule="evenodd" clip-rule="evenodd" d="M11.1515 10.8031C11.8909 10.8031 12.6 10.5093 13.1229 9.98652C13.6457 9.46369 13.9394 8.75458 13.9394 8.01519C13.9394 7.2758 13.6457 6.56669 13.1229 6.04386C12.6 5.52104 11.8909 5.22731 11.1515 5.22731C10.4122 5.22731 9.70305 5.52104 9.18022 6.04386C8.65739 6.56669 8.36367 7.2758 8.36367 8.01519C8.36367 8.75458 8.65739 9.46369 9.18022 9.98652C9.70305 10.5093 10.4122 10.8031 11.1515 10.8031ZM11.1515 12.197C12.2606 12.197 13.3243 11.7564 14.1085 10.9722C14.8928 10.1879 15.3334 9.12428 15.3334 8.01519C15.3334 6.90611 14.8928 5.84244 14.1085 5.0582C13.3243 4.27396 12.2606 3.83337 11.1515 3.83337C10.0425 3.83337 8.9788 4.27396 8.19455 5.0582C7.41031 5.84244 6.96973 6.90611 6.96973 8.01519C6.96973 9.12428 7.41031 10.1879 8.19455 10.9722C8.9788 11.7564 10.0425 12.197 11.1515 12.197Z" fill="#808191"/>
</svg>
