<svg width="23" height="23" viewBox="0 0 23 23" fill="none" xmlns="http://www.w3.org/2000/svg">
<path d="M20.4757 16.9023C19.7561 16.1821 18.9152 15.5943 17.9917 15.1659C19.2941 14.1108 20.1249 12.5008 20.1249 10.6954C20.1249 7.50995 17.4685 4.89666 14.283 4.94553C11.1464 4.9944 8.61927 7.5502 8.61927 10.6954C8.61927 12.5008 9.45301 14.1108 10.7525 15.1659C9.82879 15.594 8.9879 16.1819 8.26852 16.9023C6.69878 18.4749 5.80754 20.5506 5.75004 22.7643C5.74927 22.7949 5.75465 22.8255 5.76587 22.854C5.77708 22.8826 5.7939 22.9086 5.81533 22.9306C5.83677 22.9526 5.86238 22.97 5.89067 22.982C5.91896 22.9939 5.94934 23 5.98003 23H7.59002C7.71365 23 7.81715 22.9023 7.82002 22.7786C7.87465 21.1112 8.55027 19.5501 9.73764 18.3656C10.3452 17.7548 11.0679 17.2706 11.8639 16.9409C12.6599 16.6113 13.5134 16.4428 14.375 16.4452C16.1258 16.4452 17.7732 17.1265 19.0123 18.3656C20.1968 19.5501 20.8724 21.1112 20.9299 22.7786C20.9328 22.9023 21.0363 23 21.1599 23H22.7699C22.8006 23 22.831 22.9939 22.8593 22.982C22.8876 22.97 22.9132 22.9526 22.9346 22.9306C22.9561 22.9086 22.9729 22.8826 22.9841 22.854C22.9953 22.8255 23.0007 22.7949 22.9999 22.7643C22.9424 20.5506 22.0512 18.4749 20.4757 16.9023ZM14.375 14.3753C13.3917 14.3753 12.466 13.9929 11.7731 13.2972C11.4254 12.9522 11.1507 12.5407 10.9655 12.0873C10.7803 11.6338 10.6883 11.1477 10.695 10.658C10.7036 9.71502 11.0803 8.80367 11.7386 8.12806C12.4286 7.42083 13.3515 7.02697 14.3376 7.01547C15.3122 7.00684 16.2581 7.38633 16.9538 8.06769C17.6668 8.76629 18.0578 9.70064 18.0578 10.6954C18.0578 11.6786 17.6755 12.6014 16.9797 13.2972C16.6384 13.6401 16.2324 13.912 15.7853 14.0971C15.3382 14.2821 14.8589 14.3767 14.375 14.3753ZM7.17315 11.4543C7.14728 11.2042 7.1329 10.9512 7.1329 10.6954C7.1329 10.2382 7.17603 9.79264 7.25653 9.35853C7.27665 9.25503 7.22203 9.14866 7.12715 9.10553C6.73615 8.93016 6.37678 8.68867 6.06628 8.38393C5.70041 8.02919 5.41251 7.60207 5.22094 7.12984C5.02937 6.65761 4.93834 6.15064 4.95367 5.64126C4.97954 4.71841 5.35041 3.84156 5.99728 3.18033C6.70741 2.45298 7.6619 2.05624 8.67677 2.06774C9.59389 2.07636 10.4794 2.42998 11.1493 3.05671C11.3764 3.26945 11.5719 3.5052 11.7357 3.75819C11.7932 3.84731 11.9054 3.88469 12.0031 3.85019C12.5091 3.67482 13.0439 3.5512 13.593 3.4937C13.754 3.47645 13.846 3.30395 13.7741 3.16021C12.8397 1.31164 10.9308 0.0351736 8.72277 0.000674563C5.53441 -0.048199 2.87793 2.5651 2.87793 5.74763C2.87793 7.55308 3.7088 9.16303 5.01117 10.2181C4.09692 10.6407 3.25455 11.2243 2.52431 11.9546C0.948816 13.5272 0.0575715 15.6028 7.18918e-05 17.8194C-0.000695455 17.8501 0.00468659 17.8806 0.015901 17.9092C0.0271155 17.9378 0.0439354 17.9638 0.0653696 17.9858C0.0868039 18.0077 0.112419 18.0252 0.140705 18.0371C0.168991 18.049 0.199377 18.0552 0.23007 18.0551H1.84294C1.96656 18.0551 2.07006 17.9574 2.07293 17.8338C2.12756 16.1663 2.80318 14.6052 3.99055 13.4208C4.83579 12.5756 5.87079 11.9891 7.00065 11.7045C7.11278 11.6757 7.18753 11.5693 7.17315 11.4543Z" fill="#808191"/>
</svg>
