<svg width="37" height="29" viewBox="0 0 37 29" fill="none" xmlns="http://www.w3.org/2000/svg">
<path d="M24.0406 0L16.4555 4.75854L17.2243 5.17002L23.9726 0.936322L35.4188 7.27322L28.8535 11.392L29.1733 11.5631V12.0852L34.3157 8.85896L35.395 9.45654L29.1732 13.3597V14.2535L34.215 11.0905L35.395 11.7439L29.1732 15.6471V16.5408L34.215 13.3778L35.395 14.0312L29.1732 17.9344V18.8282L36.9764 13.9327L35.0396 12.8606L36.9763 11.6455L35.0396 10.5733L36.9762 9.35819L35.1402 8.34166L37 7.17479L24.0406 0ZM26.464 3.41105C24.8229 4.21585 22.637 4.35202 21.0979 3.74521L18.0893 5.63273L27.9884 10.9292L30.8421 9.13908C29.718 8.27175 29.8116 6.97763 31.0716 5.96209L26.464 3.41105ZM16.2772 6.22772L10.7631 9.74199L21.3415 15.6939L21.4452 15.6291C21.6402 15.5063 21.9156 15.3325 22.2442 15.1249C22.901 14.7099 23.7702 14.1597 24.6369 13.6107C25.8852 12.8201 26.5284 12.4122 27.1266 12.033L16.2772 6.22772ZM25.2843 6.31692H25.2845C25.534 6.31841 25.7627 6.37067 25.9335 6.46521C26.0329 6.52023 26.1101 6.58809 26.1604 6.66493C26.2108 6.74177 26.2335 6.82607 26.2272 6.91303C26.2209 6.99998 26.1857 7.08789 26.1237 7.17172C26.0617 7.25555 25.974 7.33367 25.8657 7.40161C25.7574 7.46955 25.6306 7.52598 25.4925 7.56769C25.3544 7.6094 25.2078 7.63557 25.0609 7.64471C24.9141 7.65384 24.7699 7.64576 24.6366 7.62092C24.5034 7.59608 24.3836 7.55498 24.2843 7.49996C24.0836 7.38884 23.978 7.22778 23.9907 7.0522C24.0034 6.87663 24.1334 6.70091 24.3521 6.56371C24.4763 6.48578 24.6246 6.42311 24.7861 6.38037C24.9475 6.33764 25.1178 6.31595 25.2843 6.31692ZM8.24601 9.90904L0.0237918 15.0672L1.85982 16.0837L0 17.2506L1.93673 18.3228L0 19.5379L1.93673 20.6101L0 21.8252L12.9595 29L20.7838 24.0911V23.1976L13.0275 28.0636L1.58134 21.7266L2.69331 21.029L12.9595 26.7126L20.7838 21.8039V20.9103L13.0275 25.7764L1.58134 19.4394L2.69331 18.7418L12.9595 24.4254L20.7838 19.5166V18.6231L13.0275 23.4891L1.58134 17.1521L2.61647 16.5026L12.9835 22.242L20.7838 17.3482V16.9632L20.3563 16.7227L13.0511 21.3056L1.60528 14.9687L8.99712 10.3314L8.24593 9.90881L8.24601 9.90904ZM9.84201 10.8072L6.18197 13.1032C7.30603 13.9703 7.21243 15.2645 5.95248 16.2802L10.5601 18.8312C12.2011 18.0263 14.3869 17.8902 15.9259 18.497L19.5115 16.2475L9.84185 10.8071L9.84201 10.8072ZM27.7691 13.2614C27.1416 13.6591 26.5882 14.0102 25.4006 14.7624C24.6029 15.2679 23.8049 15.7729 23.0066 16.2776C22.6776 16.4853 22.4017 16.6595 22.2049 16.7832C22.1978 16.7878 22.1949 16.7893 22.1881 16.7936V23.3446L27.7692 19.6783L27.7691 13.2614ZM12.0907 14.5941C12.3402 14.5956 12.5689 14.6479 12.7397 14.7425C12.9404 14.8536 13.046 15.0147 13.0333 15.1903C13.0205 15.3659 12.8905 15.5416 12.6718 15.6788C12.4531 15.8159 12.1637 15.9034 11.8672 15.9218C11.5707 15.9402 11.2913 15.8882 11.0906 15.7771C10.89 15.666 10.7844 15.5049 10.7971 15.3294C10.8098 15.1538 10.9398 14.9781 11.1585 14.8409C11.2827 14.763 11.4311 14.7003 11.5925 14.6576C11.7539 14.6149 11.9242 14.5932 12.0907 14.5942V14.5941Z" fill="#808191"/>
</svg>
