<svg width="27" height="27" viewBox="0 0 27 27" fill="none" xmlns="http://www.w3.org/2000/svg">
<path stroke-width="1.5" d="M11.4047 16.8783V10.1216H13.6169C14.8669 10.1216 15.8804 11.1378 15.8804 12.3905C15.8804 13.6432 14.8669 14.6601 13.6169 14.6601H11.4047M5.20135 16.8783V10.1216L9.67771 16.8783V10.1216M17.4561 16.1378C17.8709 16.6777 18.3899 16.8783 19.1128 16.8783H20.1128C20.5599 16.8783 20.9887 16.7007 21.3049 16.3846C21.621 16.0684 21.7987 15.6396 21.7987 15.1925V15.1858C21.7987 14.7388 21.6211 14.3101 21.3051 13.994C20.9891 13.6778 20.5605 13.5001 20.1135 13.5H19.0101C18.7885 13.5 18.5691 13.4565 18.3643 13.3717C18.1595 13.287 17.9734 13.1627 17.8167 13.006C17.66 12.8494 17.5356 12.6633 17.4508 12.4586C17.366 12.2539 17.3223 12.0344 17.3223 11.8128C17.3223 11.3643 17.5005 10.9341 17.8176 10.6169C18.1348 10.2998 18.565 10.1216 19.0135 10.1216H20.0088C20.7318 10.1216 21.2507 10.3223 21.6649 10.8621" stroke="#808191" stroke-linecap="round" stroke-linejoin="round"/>
<path  stroke-width="2" d="M24.6486 1H2.35135C1.99295 1 1.64923 1.14237 1.3958 1.3958C1.14237 1.64923 1 1.99295 1 2.35135V24.6486C1 25.007 1.14237 25.3508 1.3958 25.6042C1.64923 25.8576 1.99295 26 2.35135 26H24.6486C25.007 26 25.3508 25.8576 25.6042 25.6042C25.8576 25.3508 26 25.007 26 24.6486V2.35135C26 1.99295 25.8576 1.64923 25.6042 1.3958C25.3508 1.14237 25.007 1 24.6486 1Z" stroke="#808191" stroke-linecap="round" stroke-linejoin="round"/>
</svg>
