<svg width="27" height="29" viewBox="0 0 27 29" fill="none" xmlns="http://www.w3.org/2000/svg">
<path d="M17.6667 3.84211V1M17.6667 3.84211V6.68421M17.6667 3.84211H11.4167M1 12.3684V25.1579C1 25.9117 1.29266 26.6346 1.81359 27.1676C2.33453 27.7006 3.04107 28 3.77778 28H23.2222C23.9589 28 24.6655 27.7006 25.1864 27.1676C25.7073 26.6346 26 25.9117 26 25.1579V12.3684M1 12.3684H26M1 12.3684V6.68421C1 5.93044 1.29266 5.20754 1.81359 4.67454C2.33453 4.14154 3.04107 3.84211 3.77778 3.84211H6.55556M26 12.3684V6.68421C26 5.93044 25.7073 5.20754 25.1864 4.67454C24.6655 4.14154 23.9589 3.84211 23.2222 3.84211H22.5278M6.55556 1V6.68421" stroke="#808191" stroke-width="2" stroke-linecap="round" stroke-linejoin="round"/>
</svg>
