<svg width="24" height="35" viewBox="0 0 24 35" fill="none" xmlns="http://www.w3.org/2000/svg">
<path d="M22.9297 33.7143C22.9297 33.5724 22.8733 33.4363 22.773 33.3359C22.6726 33.2356 22.5365 33.1792 22.3946 33.1792H3.12924C2.98731 33.1792 2.85119 33.2356 2.75083 33.3359C2.65047 33.4363 2.59409 33.5724 2.59409 33.7143C2.59409 33.8563 2.65047 33.9924 2.75083 34.0927C2.85119 34.1931 2.98731 34.2495 3.12924 34.2495H22.3946C22.5365 34.2495 22.6726 34.1931 22.773 34.0927C22.8733 33.9924 22.9297 33.8563 22.9297 33.7143ZM0.746756 10.0115C0.299372 10.3091 -0.379196 11.2146 0.264053 12.5011C0.79813 13.5681 1.91231 14.8739 3.09713 15.2185C3.38191 15.3078 3.68245 15.3352 3.97868 15.299C4.27491 15.2629 4.56002 15.1639 4.81495 15.0088C5.99121 14.3045 7.38045 13.3519 7.96912 12.9431C8.7119 13.3188 9.64948 13.3969 10.602 13.1518L10.6149 13.1475C10.5592 14.9146 9.96094 16.018 7.03582 18.7345C4.42858 21.1544 2.882 24.3332 2.89698 27.239C2.90768 29.1452 3.60231 30.7817 4.90914 31.9687C5.00761 32.0589 5.1363 32.1089 5.26983 32.1089H20.254C20.3959 32.1089 20.532 32.0525 20.6324 31.9521C20.7327 31.8518 20.7891 31.7157 20.7891 31.5737C20.7891 31.4318 20.7327 31.2957 20.6324 31.1953C20.532 31.095 20.3959 31.0386 20.254 31.0386H5.48282C4.49922 30.07 3.97691 28.7589 3.96835 27.2337C3.95443 24.6628 5.41004 21.7056 7.76469 19.519C10.8846 16.6228 11.6916 15.2506 11.6916 12.8436C11.6916 12.7997 11.6766 12.7611 11.667 12.7205C12.2524 12.4047 12.7587 11.9873 13.1044 11.4821C13.5379 10.8507 14.4712 9.22916 13.7787 7.79389C13.748 7.73065 13.7052 7.67405 13.6527 7.62734C13.6002 7.58063 13.539 7.54472 13.4726 7.52167C13.4062 7.49861 13.336 7.48885 13.2658 7.49296C13.1956 7.49706 13.127 7.51495 13.0637 7.54559C13.0005 7.57623 12.9439 7.61902 12.8972 7.67154C12.8505 7.72405 12.8146 7.78525 12.7915 7.85164C12.7684 7.91803 12.7587 7.98831 12.7628 8.05847C12.7669 8.12863 12.7848 8.19729 12.8154 8.26054C13.1269 8.90593 12.9053 9.88418 12.2225 10.8774C11.8286 11.4511 11.1243 11.9145 10.3377 12.1157C9.53817 12.3202 8.77826 12.2303 8.24846 11.8674C8.15834 11.8057 8.05147 11.773 7.94222 11.7738C7.83297 11.7745 7.72657 11.8087 7.63732 11.8717C7.61806 11.8846 5.73541 13.2107 4.26696 14.0915C4.13823 14.1707 3.99372 14.2208 3.84357 14.2382C3.69343 14.2555 3.5413 14.2398 3.39788 14.1921C2.56947 13.9502 1.65865 12.8949 1.22304 12.0237C0.870911 11.3195 1.2316 10.9834 1.39536 10.8635C5.08467 7.67723 6.93628 4.36681 7.01227 4.2266C7.04748 4.16181 7.06907 4.0905 7.0757 4.01706C7.08232 3.94362 7.07385 3.8696 7.0508 3.79955C6.8193 3.08513 6.62637 2.35877 6.47284 1.62364C7.59237 2.29792 9.51783 3.23978 11.5225 3.23978C14.3096 3.23978 20.7891 4.28011 20.7891 13.9171C20.7891 13.9695 20.7795 19.2086 18.6806 24.97C18.6558 25.0363 18.6443 25.1068 18.6469 25.1775C18.6495 25.2482 18.6661 25.3177 18.6957 25.382C18.7253 25.4463 18.7674 25.504 18.8195 25.5519C18.8716 25.5998 18.9327 25.6369 18.9992 25.661C19.0657 25.6852 19.1364 25.6959 19.2071 25.6925C19.2777 25.6892 19.3471 25.6718 19.411 25.6415C19.475 25.6112 19.5322 25.5685 19.5796 25.5159C19.6269 25.4632 19.6633 25.4018 19.6867 25.335C21.8498 19.397 21.8605 14.1333 21.8594 13.9138C21.8594 3.01502 13.9467 2.16842 11.5225 2.16842C8.83713 2.16842 6.15817 0.131645 6.13249 0.110239C6.05263 0.0500515 5.95769 0.013102 5.85816 0.00346957C5.75862 -0.00616285 5.65836 0.0118965 5.56844 0.0556539C5.4789 0.0997744 5.40348 0.168059 5.35072 0.252791C5.29795 0.337524 5.26993 0.435326 5.26983 0.535146C5.26983 1.58511 5.76752 3.28367 5.96124 3.90337C5.51386 4.65043 3.75001 7.41501 0.746756 10.0115Z" fill="#808191"/>
<path d="M18.0973 1.64826C16.3838 0.493407 14.4679 0 11.6916 0C11.5497 0 11.4135 0.0563815 11.3132 0.156741C11.2128 0.257101 11.1564 0.393218 11.1564 0.535148C11.1564 0.677078 11.2128 0.813195 11.3132 0.913555C11.4135 1.01391 11.5497 1.0703 11.6916 1.0703C14.2389 1.0703 15.976 1.50805 17.5001 2.53553C19.9767 4.20733 22.9297 7.5381 22.9297 13.9138C22.9297 15.4669 22.9297 17.5935 21.8754 21.8116C21.8448 21.9479 21.8687 22.0909 21.942 22.2099C22.0154 22.3289 22.1324 22.4144 22.268 22.4483C22.4036 22.4821 22.5471 22.4615 22.6678 22.391C22.7884 22.3204 22.8767 22.2054 22.9136 22.0706C24 17.7262 24 15.5225 24 13.9138C24 7.06824 20.7902 3.46455 18.0973 1.64826Z" fill="#808191"/>
</svg>
