<svg width="15" height="16" viewBox="0 0 15 16" fill="none" xmlns="http://www.w3.org/2000/svg">
<path d="M7.5 15C6.04485 15 4.62587 14.5465 3.44043 13.7025C2.25499 12.8586 1.36203 11.6662 0.885728 10.2912C0.409429 8.91623 0.373478 7.42698 0.782875 6.0306C1.19227 4.63422 2.02666 3.40014 3.17 2.5M7.5 1C8.95515 1.00003 10.3741 1.45354 11.5596 2.29747C12.745 3.14139 13.638 4.33378 14.1143 5.70877C14.5906 7.08377 14.6265 8.57302 14.2171 9.9694C13.8077 11.3658 12.9733 12.5999 11.83 13.5M11.5 10.5V14H15M0 2H3.5V5.5" stroke="#808191"/>
</svg>
